<?xml version="1.0" standalone="no"?>
<!DOCTYPE svg PUBLIC "-//W3C//DTD SVG 20010904//EN"
 "http://www.w3.org/TR/2001/REC-SVG-20010904/DTD/svg10.dtd">
<svg version="1.0" xmlns="http://www.w3.org/2000/svg"
 width="666.000000pt" height="666.000000pt" viewBox="0 0 666.000000 666.000000"
 preserveAspectRatio="xMidYMid meet">
<metadata>
Created by potrace 1.11, written by Peter Selinger 2001-2013
</metadata>
<g transform="translate(0.000000,666.000000) scale(0.100000,-0.100000)"
fill="#000000" stroke="none">
<path d="M3045 6404 c-237 -33 -417 -75 -595 -141 -654 -240 -1177 -762 -1420
-1419 -48 -129 -103 -344 -127 -496 -25 -158 -25 -518 0 -676 85 -543 329
-1021 709 -1388 85 -82 209 -186 267 -225 l24 -15 -23 -70 c-33 -100 -46 -121
-118 -196 -55 -57 -65 -73 -69 -111 -8 -69 12 -111 96 -200 42 -45 115 -129
163 -187 95 -115 129 -145 201 -178 l48 -23 -19 -32 c-17 -28 -19 -40 -11 -92
5 -33 13 -75 18 -92 5 -18 6 -35 2 -38 -5 -2 -13 15 -20 38 -20 71 -33 97 -47
97 -18 0 -18 -12 1 -83 8 -32 15 -63 15 -70 0 -14 -57 67 -71 101 -5 13 -15
22 -22 20 -24 -9 -17 -48 18 -102 22 -32 34 -60 29 -67 -4 -7 -3 -10 3 -6 10
7 41 -49 58 -103 14 -46 -23 -3 -67 77 -22 40 -44 75 -49 79 -5 3 -7 9 -4 14
3 4 -1 10 -9 13 -8 3 -17 27 -21 56 -8 57 -25 80 -45 56 -7 -8 -9 -22 -6 -31
8 -22 36 -207 32 -212 -2 -2 -21 38 -41 88 -21 50 -43 94 -48 97 -6 3 -16 -2
-23 -11 -10 -14 -8 -26 11 -70 28 -64 45 -123 37 -131 -3 -3 -38 55 -77 129
-74 140 -119 199 -128 166 -2 -9 1 -32 8 -51 8 -19 32 -83 55 -143 22 -59 39
-110 36 -113 -8 -8 -73 61 -96 105 -13 23 -28 42 -34 42 -22 0 -39 -18 -33
-34 14 -35 -15 -12 -69 54 -37 46 -62 69 -71 65 -8 -3 -17 -5 -19 -5 -10 0 -2
-38 16 -78 21 -46 80 -140 117 -185 13 -16 23 -34 23 -40 0 -7 -12 3 -26 21
-14 17 -31 32 -38 32 -7 0 -21 9 -31 20 -34 37 -26 13 17 -51 47 -70 68 -94
89 -101 10 -3 7 -9 -10 -17 -13 -8 -26 -9 -30 -4 -3 5 -22 20 -41 33 -19 14
-51 40 -70 57 -19 18 -38 33 -42 33 -4 0 -8 7 -8 15 0 17 -12 19 -26 5 -10
-10 -4 -79 11 -128 17 -53 -40 5 -66 68 -4 11 -9 9 -22 -10 -13 -20 -14 -33
-6 -70 6 -24 15 -47 21 -51 6 -4 7 -9 0 -13 -14 -8 -62 32 -73 61 -5 13 -13
21 -19 18 -5 -3 -10 -1 -10 4 0 16 -27 13 -33 -3 -3 -8 -1 -31 4 -51 6 -20 8
-39 5 -42 -2 -3 -20 6 -38 20 -71 53 -142 77 -152 51 -9 -24 4 -84 19 -84 7 0
39 -25 71 -55 33 -30 56 -55 53 -55 -4 0 -25 7 -48 15 -38 13 -41 13 -51 -5
-7 -13 -7 -20 -1 -20 11 0 46 -60 43 -72 -1 -5 4 -8 12 -8 8 0 17 -8 21 -17 8
-26 72 -63 106 -63 17 0 48 9 70 19 22 11 53 23 69 26 17 4 33 12 37 19 5 6
31 17 59 24 29 8 85 27 125 43 65 27 84 30 184 30 86 0 133 -6 210 -25 114
-29 177 -33 195 -11 13 16 6 95 -11 127 -14 26 5 30 34 8 14 -11 32 -20 41
-20 9 0 16 -5 16 -10 0 -6 12 -15 26 -20 14 -6 49 -26 78 -45 29 -19 69 -42
91 -50 34 -15 39 -15 53 -1 13 12 14 22 5 51 -6 19 -10 35 -8 35 2 0 20 -9 42
-19 103 -52 155 -73 192 -78 23 -3 41 -10 41 -14 0 -5 7 -9 16 -9 8 0 13 4 10
9 -3 4 6 13 19 19 20 9 25 19 25 47 0 37 10 44 30 20 7 -8 21 -15 31 -15 11 0
19 -5 19 -11 0 -12 40 -48 53 -49 5 0 22 -9 38 -21 19 -13 52 -23 89 -26 54
-5 60 -4 62 13 3 45 -5 79 -28 115 -13 21 -24 43 -24 49 0 27 97 -9 142 -52
10 -11 33 -18 54 -18 37 0 59 -17 116 -92 16 -20 42 -40 67 -48 35 -11 43 -11
66 4 14 9 36 33 49 54 41 66 49 68 89 22 19 -22 42 -40 50 -40 9 0 27 16 40
35 27 39 35 32 31 -25 -6 -68 2 -80 49 -80 24 0 77 9 118 20 52 14 107 20 187
20 l112 0 0 -37 c0 -21 6 -46 14 -55 14 -19 64 -25 116 -14 l35 8 -34 -26 -35
-26 346 0 c241 0 349 3 354 11 3 6 1 21 -5 32 -6 12 -15 34 -21 50 -16 44 -79
39 -212 -17 -43 -18 -68 -20 -68 -6 0 6 6 10 13 10 19 0 47 38 41 55 -8 20
-52 31 -67 16 -6 -6 -26 -11 -43 -11 -18 0 -36 -4 -39 -10 -3 -5 -15 -10 -26
-10 -27 0 -21 32 9 45 12 5 22 15 22 22 0 7 6 13 13 13 34 0 67 26 67 52 0 15
5 30 11 33 6 4 8 13 6 19 -10 26 142 161 160 142 3 -3 1 -6 -5 -6 -16 0 -15
-30 1 -31 29 -3 53 4 71 19 13 12 17 12 11 3 -6 -11 -3 -10 15 2 22 16 24 15
37 -10 18 -34 17 -36 -17 -56 -29 -18 -30 -18 -30 2 0 12 -7 21 -15 21 -8 0
-15 -5 -15 -12 0 -9 -3 -9 -12 0 -20 20 -75 15 -91 -8 -19 -27 -10 -70 17 -79
31 -12 73 7 85 37 l9 27 1 -32 c1 -35 9 -41 29 -21 9 9 16 7 32 -7 24 -22 39
-12 22 15 -9 15 -8 25 3 47 l15 28 0 -42 c0 -32 5 -45 20 -53 30 -16 65 -2 83
33 l16 32 0 -38 c1 -43 24 -48 29 -6 2 14 13 29 27 36 23 10 26 9 31 -15 10
-46 14 -53 24 -47 18 11 10 -2 -30 -51 -22 -27 -40 -52 -40 -56 0 -21 28 -3
57 35 18 23 55 65 83 94 48 50 61 73 40 73 -5 0 -27 -19 -49 -42 l-39 -42 -16
38 c-9 21 -16 44 -16 51 0 22 -13 24 -39 6 -19 -14 -31 -17 -44 -10 -9 6 -22
7 -27 4 -6 -3 -10 -2 -10 4 0 13 54 51 72 51 8 0 23 7 34 15 10 8 39 15 62 15
45 0 112 25 112 41 0 5 11 9 25 9 14 0 25 4 25 10 0 5 18 14 39 20 50 13 55
28 21 69 l-28 33 -87 -25 c-69 -21 -91 -24 -110 -15 -19 8 -35 8 -66 -1 -34
-10 -43 -10 -50 1 -7 10 -9 9 -9 -4 0 -10 -7 -18 -15 -18 -8 0 -15 4 -15 10 0
11 73 50 95 50 8 0 15 8 15 18 0 13 11 21 36 28 19 5 34 14 32 19 -5 15 -83 7
-161 -16 -38 -11 -71 -18 -73 -16 -3 3 21 19 53 37 32 18 59 34 61 35 8 7 -13
34 -31 39 -21 6 -20 8 17 41 40 36 44 65 7 65 -21 0 -117 -55 -273 -155 -55
-36 -103 -64 -106 -61 -2 3 38 49 91 103 74 74 94 100 85 110 -16 20 -22 17
-100 -39 -58 -41 -80 -51 -107 -49 -18 1 -39 -3 -45 -8 -10 -8 -12 1 -8 43 3
41 -1 65 -19 104 -21 46 -30 54 -90 82 -36 16 -74 30 -85 30 -11 0 -51 8 -89
19 -39 10 -131 33 -206 51 -75 18 -143 36 -150 41 -10 6 4 25 56 76 162 157
222 305 231 563 l4 125 105 70 c495 331 846 817 994 1375 57 214 73 328 78
557 6 226 -4 365 -38 533 -97 476 -308 878 -637 1214 -367 375 -799 602 -1327
697 -97 18 -166 22 -365 24 -135 2 -258 1 -275 -1z"/>
<path d="M1340 810 c0 -5 7 -10 15 -10 8 0 15 5 15 10 0 6 -7 10 -15 10 -8 0
-15 -4 -15 -10z"/>
<path d="M5442 244 c-24 -17 -30 -62 -10 -82 17 -17 49 -14 77 7 13 10 33 16
47 13 20 -4 23 -11 26 -55 2 -39 7 -53 20 -55 14 -3 16 8 16 77 0 49 -4 84
-11 89 -22 17 -56 20 -68 6 -15 -18 -33 -18 -49 1 -16 19 -20 19 -48 -1z"/>
</g>
</svg>
