<svg xmlns="http://www.w3.org/2000/svg" viewBox="0 0 270.5 121.9"><path fill="#fff" d="M37.4 37.5c-.7-2.1-1.9-4.1-3.5-5.5l-2.3-2.1c0-3.8-1.7-7.3-7.2-10.1 0 0-2.8-1.5-6.9-1.5 0 0 2.5 2.5 3.1 5.2.3 1.4-.2 2.5-3.3 5.6-2.7 2.7-6 6-6.4 10.7-.1.5-.1 1-.1 1.5 0 7.5 6.1 13.6 13.6 13.6S38 48.8 38 41.3c0-1.5-.2-2.7-.6-3.8z"/><circle fill="#31c903" cx="68.9" cy="13" r="13"/><circle fill="#31c903" cx="122.1" cy="12.8" r="10.6"/><circle fill="#31c903" cx="166.1" cy="26" r="8.3"/><circle fill="#31c903" cx="198.5" cy="48.8" r="7.4"/><circle fill="#31c903" cx="215.2" cy="31.1" r="5.2"/><circle fill="#31c903" cx="233.5" cy="20.8" r="3.8"/><circle fill="#31c903" cx="250" cy="16.2" r="3"/><circle fill="#31c903" cx="264.4" cy="17.6" r="2.5"/><path fill="#1e7ec1" d="M83.3 70.1c0-3.9-.1-7.2-.3-10h8.2l.4 4.2h.2c1.3-2 4.1-4.9 9.4-4.9 4 0 7.2 2 8.6 5.3h.1c1.1-1.6 2.6-2.9 4-3.8 1.7-1 3.6-1.5 5.9-1.5 6 0 10.5 4.2 10.5 13.5v18.4h-9.4v-17c0-4.5-1.5-7.2-4.6-7.2-2.2 0-3.8 1.5-4.5 3.4-.3.7-.4 1.7-.4 2.5v18.3H102V73.9c0-4-1.4-6.6-4.5-6.6-2.5 0-4 1.9-4.5 3.5-.3.8-.4 1.7-.4 2.4v18.2h-9.4l.1-21.3zm82.8 5.3c0 11.4-8.1 16.7-16.5 16.7-9.1 0-16.1-6-16.1-16.1s6.6-16.5 16.7-16.5c9.5 0 15.9 6.6 15.9 15.9zm-22.6.4c0 5.4 2.2 9.4 6.4 9.4 3.8 0 6.2-3.8 6.2-9.4 0-4.7-1.8-9.4-6.2-9.4-4.7 0-6.4 4.8-6.4 9.4zm37.6-24.5v8.9h7v7.1h-7v11.3c0 3.8.9 5.5 3.8 5.5 1.2 0 2.2-.1 2.9-.3l.1 7.3c-1.3.5-3.6.8-6.3.8-3.1 0-5.7-1.1-7.3-2.7-1.8-1.9-2.7-4.9-2.7-9.3V67.3h-4.1v-7.1h4.1v-6.8l9.5-2.1zm12.6 40.1V60.2h9.7v31.2h-9.7zm45.3-16c0 11.4-8.1 16.7-16.5 16.7-9.1 0-16.1-6-16.1-16.1s6.6-16.5 16.7-16.5c9.6 0 15.9 6.6 15.9 15.9zm-22.6.4c0 5.4 2.2 9.4 6.4 9.4 3.8 0 6.2-3.8 6.2-9.4 0-4.7-1.8-9.4-6.2-9.4-4.6 0-6.4 4.8-6.4 9.4zm24.6-5.7c0-3.9-.1-7.2-.3-10h8.4l.4 4.3h.2c1.3-2 4.5-5 9.6-5 6.4 0 11.2 4.2 11.2 13.4v18.5h-9.7V74.1c0-4-1.4-6.8-4.9-6.8-2.7 0-4.3 1.9-4.9 3.6-.3.6-.4 1.5-.4 2.4v18H241V70.1z"/><path fill="#31c903" d="M39.6 32.5c-1.6 0-3.2.1-4.8.3 1.9 2.3 3.1 5.3 3.1 8.6 0 7.4-6.1 13.5-13.5 13.5-6.4 0-11.7-4.5-13.1-10.4C4.3 51.6 0 61.3 0 72.1c0 21.9 17.7 39.6 39.6 39.6S79.2 94 79.2 72.1 61.5 32.5 39.6 32.5z"/><path fill="#fff" d="M20.7 60.2h9.7v31.2h-9.7V60.2zm37.4 31.2V74.1c0-4-1.4-6.8-4.9-6.8-2.7 0-4.3 1.9-4.9 3.6-.3.6-.4 1.5-.4 2.4v18h-9.7V70.1c0-3.9-.1-7.2-.3-10h8.4l.4 4.3h.3c1.3-2 4.5-5 9.6-5 6.4 0 11.2 4.2 11.2 13.4v18.5l-9.7.1z"/><path fill="#6d747c" d="M205.6 99.2c0-1.2.7-1.8 2-1.8s2 .6 2 1.8c0 .6-.2 1-.5 1.3s-.8.5-1.5.5c-1.3 0-2-.6-2-1.8zm3.9 16.8h-3.7v-13.4h3.7V116zm15-13.4v1.9l-2.1.5c.4.6.6 1.3.6 2 0 1.4-.5 2.6-1.5 3.4s-2.4 1.2-4.2 1.2h-.7l-.5-.1c-.4.3-.6.6-.6 1 0 .5.7.8 2 .8h2.3c1.5 0 2.6.3 3.4.9.8.6 1.2 1.6 1.2 2.8 0 1.6-.7 2.8-2 3.6-1.3.9-3.2 1.3-5.6 1.3-1.9 0-3.3-.3-4.3-1s-1.5-1.6-1.5-2.7c0-.8.3-1.5.8-2s1.2-.9 2.2-1.2c-.4-.2-.7-.4-1-.8s-.4-.7-.4-1.2.1-.9.4-1.3c.3-.3.7-.7 1.3-1-.7-.3-1.3-.8-1.7-1.5s-.6-1.5-.6-2.4c0-1.5.5-2.6 1.4-3.4 1-.8 2.3-1.2 4.1-1.2.4 0 .8 0 1.3.1s.8.1 1 .1h4.7v.2zm-10.4 15.3c0 .5.2.9.7 1.2.5.3 1.2.4 2 .4 1.3 0 2.3-.2 3.1-.5.7-.4 1.1-.9 1.1-1.5 0-.5-.2-.9-.7-1-.4-.2-1.1-.3-2-.3h-1.9c-.7 0-1.2.2-1.7.5-.4.3-.6.7-.6 1.2zm1.3-10.9c0 .7.2 1.3.5 1.7.3.4.8.6 1.5.6s1.2-.2 1.5-.6.5-1 .5-1.7c0-1.6-.7-2.4-2-2.4s-2 .8-2 2.4zm23.1 9h-3.7v-7.8c0-1-.2-1.7-.5-2.2s-.9-.7-1.6-.7c-1 0-1.8.3-2.2 1-.5.7-.7 1.8-.7 3.4v6.3h-3.7v-13.4h2.8l.5 1.7h.2c.4-.6 1-1.1 1.7-1.5.7-.3 1.5-.5 2.4-.5 1.6 0 2.7.4 3.5 1.3.8.8 1.2 2.1 1.2 3.6v8.8h.1zm3.2-16.8c0-1.2.7-1.8 2-1.8s2 .6 2 1.8c0 .6-.2 1-.5 1.3s-.8.5-1.5.5c-1.4 0-2-.6-2-1.8zm3.8 16.8h-3.7v-13.4h3.7V116zm9-2.6c.6 0 1.4-.1 2.3-.4v2.7c-.9.4-2 .6-3.4.6-1.5 0-2.5-.4-3.2-1.1s-1-1.8-1-3.3v-6.5h-1.7v-1.5l2-1.2 1.1-2.8h2.3v2.9h3.8v2.7h-3.8v6.5c0 .5.1.9.4 1.2.3 0 .7.2 1.2.2zm10.5 2.9c-2.2 0-3.8-.6-5.1-1.8-1.2-1.2-1.8-2.9-1.8-5.1s.6-4 1.7-5.2 2.7-1.8 4.7-1.8c1.9 0 3.4.5 4.4 1.6 1.1 1.1 1.6 2.6 1.6 4.5v1.8h-8.6c0 1 .3 1.8.9 2.4s1.4.9 2.4.9c.8 0 1.6-.1 2.3-.3.7-.2 1.5-.4 2.3-.8v2.8c-.6.3-1.3.6-2 .7-.8.2-1.7.3-2.8.3zm-.5-11.3c-.8 0-1.4.2-1.8.7s-.7 1.2-.8 2.1h5.1c0-.9-.3-1.6-.7-2.1s-1-.7-1.8-.7z"/><path fill="#f47920" d="M13.6 41.3c0 6 4.9 10.8 10.8 10.8 6 0 10.8-4.9 10.8-10.8 0-1.1-.1-2.1-.4-3-.5-1.6-1.5-3.2-2.7-4.3-.6 2.6-3.2 3.1-3.8 1.1-.3-1.1.4-2.6.5-3.7.6-4.4-2.1-7.1-5.6-8.9 3.1 6.5-9.6 10.1-9.6 18.8z"/><path fill="#fff" d="M20.7 60h9.7v31.2h-9.7V60zm37.4 31.2V73.9c0-4-1.4-6.8-4.9-6.8-2.7 0-4.3 1.9-4.9 3.6-.3.6-.4 1.5-.4 2.4v18h-9.7V69.9c0-3.9-.1-7.2-.3-10h8.4l.4 4.3h.3c1.3-2 4.5-5 9.6-5 6.4 0 11.2 4.2 11.2 13.4v18.5l-9.7.1z"/></svg>